<svg xmlns="http://www.w3.org/2000/svg" viewBox="0 0 83.08 10"><path d="M5.54 8.72s-.04-.09-.05-.14c-.41.14-.84.21-1.29.21s-.87-.07-1.27-.2c-.12.34-.24.69-.36 1.03-.01.04-.03.08-.04.12.03.02.06.02.09.03.1.03.19.05.29.08.4.09.85.15 1.34.13a4.943 4.943 0 0 0 1.65-.32c0-.04-.03-.08-.04-.12-.11-.28-.22-.55-.33-.83" style="fill:#f5bb2d;stroke-width:0"/><path d="M.7 5.94c-.2.07-.41.13-.61.2-.03.01-.08.02-.09.03 0 .01.01.04.02.07.02.07.04.13.06.19.18.49.43.91.76 1.26.03.03.05.06.08.09s.06.06.09.08c.09-.09.18-.19.27-.29l.26-.29C1.17 6.9.88 6.45.7 5.94" style="fill:#f0991b;stroke-width:0"/><path d="M1.82 7.55c-.21.26-.43.51-.64.77-.01.01-.03.04-.03.05 0 .01.04.04.06.05.14.12.29.23.45.32.19.11.38.2.62.26.03-.06.05-.13.08-.2.1-.25.2-.49.29-.74-.3-.14-.58-.31-.83-.52" style="fill:#00a39e;stroke-width:0"/><path d="M6.79 8.46c-.17-.24-.34-.47-.51-.71-.17.12-.36.22-.55.31.12.27.23.55.35.82.01.03.03.07.05.1.16-.04.29-.09.41-.17.09-.05.17-.12.25-.19.01-.01.07-.06.07-.08 0 0-.02-.03-.03-.05-.01-.02-.02-.03-.03-.04M8.74 6.79c-.06-.02-.11-.05-.17-.07-.35-.15-.69-.29-1.04-.44-.18.38-.42.72-.71 1.01.09.09.18.19.27.28.06.06.11.12.17.17.15.16.31.32.46.48.02.02.03.04.05.04 0 0 .03-.02.04-.03.1-.08.19-.17.28-.26.3-.32.55-.69.7-1.16-.01-.01-.04-.02-.05-.03M8.69 4.32a4.51 4.51 0 0 0-.09-.55c0-.02-.01-.06-.03-.06-.01 0-.04.01-.06.02-.24.07-.47.13-.7.2.05.25.08.51.08.78 0 .43-.07.85-.21 1.23.21.08.42.16.63.25.03.01.06.03.1.03l.03-.06c.03-.07.05-.13.07-.2.14-.45.23-1.03.18-1.63" style="fill:#f0991b;stroke-width:0"/><path d="M8.05 1.99c-.14-.19-.29-.36-.46-.53-.19-.19-.4-.37-.65-.5A.597.597 0 0 0 6.83.9c-.17.25-.34.5-.5.76.39.27.72.62.98 1.02L8 2.29c.06-.04.13-.07.19-.11-.04-.07-.08-.13-.13-.19" style="fill:#f5bb2d;stroke-width:0"/><path d="M2.82 1.24C2.74 1 2.66.77 2.58.54c0-.02-.02-.08-.04-.09a4.005 4.005 0 0 0-.78.37C1.1 1.21.56 1.7.15 2.33c-.04.06-.08.11-.11.18.29.15.58.29.87.43.41-.77 1.09-1.37 1.9-1.7" style="fill:#00a39e;stroke-width:0"/><path d="M6.02 1.02c.14-.26.28-.52.41-.79-.05-.04-.11-.06-.17-.09-.15-.07-.32-.12-.51-.13-.03 0-.1-.01-.13 0-.02 0-.03.07-.04.1-.07.22-.13.44-.2.66.22.07.44.15.64.26" style="fill:#f0991b;stroke-width:0"/><path d="M.9 3.49C.74 3.43.58 3.36.42 3.3c-.03-.01-.07-.04-.08-.03-.01.01-.02.04-.04.06-.15.3-.25.64-.28 1.03 0 .06-.01.12 0 .19H.7c.01-.37.09-.73.21-1.06M.7 4.94c-.09 0-.18 0-.27.01-.11 0-.22 0-.33.02-.01.03 0 .05-.01.08a1.577 1.577 0 0 0 .07.59c.21-.05.42-.1.62-.16C.74 5.3.71 5.12.7 4.94" style="fill:#f5bb2d;stroke-width:0"/><path d="M7.96 3.21A.53.53 0 0 0 7.85 3c-.02-.02-.05-.08-.08-.08-.02 0-.05.02-.08.04a.3.3 0 0 0-.08.04c-.09.05-.19.09-.28.14.06.12.11.25.16.37.14-.04.27-.09.41-.13.03 0 .06-.01.08-.03 0-.04 0-.1-.01-.14" style="fill:#00a39e;stroke-width:0"/><path d="M3.62 1.54c.18-.03.37-.05.56-.05.17 0 .34.01.5.04.03-.15.07-.3.1-.45.01-.05.03-.1.03-.15C4.77.91 4.72.91 4.67.9 4.5.87 4.3.86 4.11.87c-.19 0-.35.03-.51.07-.02 0-.07.01-.07.03v.07c.02.17.05.33.08.49" style="fill:#f5bb2d;stroke-width:0"/><path d="M2.36 6.37c-.22-.23-.39-.51-.5-.82l-.9.3c.17.46.43.87.76 1.22l.64-.7Z" style="fill:#f0991b;stroke-width:0"/><path d="M2.6 6.6c.15.13.32.23.5.32l-.35.88c-.27-.12-.52-.28-.75-.47l.6-.73Z" style="fill:#00a39e;stroke-width:0"/><path d="M5.24 6.94c.11-.05.21-.11.32-.18l.55.76c-.16.11-.32.2-.5.28l-.37-.87ZM5.98 6.41c.17-.18.32-.38.43-.61l.87.37c-.16.34-.38.65-.64.92l-.65-.68ZM6.54 5.48c.08-.25.13-.51.13-.79 0-.16-.01-.31-.04-.45l.91-.25a3.479 3.479 0 0 1-.12 1.83l-.88-.35Z" style="fill:#f0991b;stroke-width:0"/><path d="M6.23 3.28c-.16-.23-.36-.43-.58-.6l.52-.79c.35.25.65.56.89.92l-.83.46Z" style="fill:#f5bb2d;stroke-width:0"/><path d="M3.21 2.41c-.5.22-.92.6-1.19 1.07s-.84-.42-.84-.42c.38-.7.99-1.25 1.74-1.55s.3.9.3.9Z" style="fill:#00a39e;stroke-width:0"/><path d="M1.86 4.57c.01-.22.06-.44.13-.64l-.82-.33c-.11.3-.17.62-.19.96h.88ZM1.91 5.19c-.02-.1-.04-.2-.05-.3l-.88.04c.01.16.04.33.07.48l.85-.22Z" style="fill:#f5bb2d;stroke-width:0"/><path d="M2.46 6.26c-.2-.22-.35-.47-.46-.75h.01c.27-.09.53-.18.8-.27.03-.01.07-.03.09-.03.02 0 .02.01.03.04.05.08.1.16.16.23 0 0 .03.02.03.04 0 0-.02.03-.03.04-.21.23-.42.46-.62.69l-.02.02Z" style="fill:#f0991b;stroke-width:0"/><path d="M3.16 6.78c-.16-.08-.32-.18-.46-.3l.02-.03c.18-.22.37-.44.55-.66.03-.03.05-.06.08-.09.02 0 .03.02.05.03.03.02.06.03.09.05.02 0 .04.02.05.03 0 0-.01.03-.02.05l-.3.75-.06.15v.02Z" style="fill:#00a39e;stroke-width:0"/><path d="M5.46 6.64c-.09.06-.19.11-.29.16v-.03c-.15-.31-.29-.63-.42-.94 0-.02-.02-.04-.02-.05 0-.02.05-.03.06-.04.02 0 .03.03.04.04.2.28.4.55.6.83l.03.04ZM6.27 5.73c-.1.2-.24.39-.39.56l-.04-.04s-.05-.06-.08-.08c-.06-.06-.11-.12-.17-.18-.14-.15-.28-.29-.42-.44l-.04-.04c-.02-.02-.04-.04-.04-.05 0-.01.02-.03.03-.04.01-.02.02-.03.03-.04.02-.03.05-.07.06-.09.03 0 .08.03.12.05.3.13.6.25.9.38h.03ZM6.48 4.28c.02.13.04.27.04.41 0 .25-.04.5-.12.73h-.03c-.21-.1-.43-.18-.64-.26-.1-.04-.19-.08-.29-.11-.03-.01-.06-.02-.09-.04.02-.09.05-.19.05-.31v-.12c0-.01.07-.02.1-.03.32-.09.63-.17.95-.26h.04Z" style="fill:#f0991b;stroke-width:0"/><path d="M6.04 3.39s-.08.04-.12.07c-.23.13-.47.27-.71.4-.02 0-.04.02-.05.02-.01 0-.04-.04-.05-.05a.902.902 0 0 0-.09-.1c-.01-.01-.04-.03-.04-.05 0-.01.02-.03.03-.05.17-.26.35-.52.52-.77l.03-.04c.21.15.39.34.54.55l-.06.03Z" style="fill:#f5bb2d;stroke-width:0"/><path d="M2.15 3.56c.25-.44.64-.8 1.1-1 .01.05.03.09.04.13.07.21.14.43.22.65 0 .03.03.08.03.09 0 .01-.03.02-.04.03-.2.1-.36.24-.48.42 0 0-.02.02-.03.04 0 .01-.02.04-.03.04-.02 0-.08-.03-.1-.04l-.72-.36ZM6.32 3.9c-.03-.08-.06-.15-.1-.23l.85-.41c.05.11.1.22.14.33s-.9.31-.9.31Z" style="fill:#00a39e;stroke-width:0"/><path d="M1.99 4.57c.01-.21.05-.41.12-.59h.02c.21.09.42.18.64.26.02 0 .07.02.07.03 0 .01-.01.06-.02.07 0 .03 0 .05-.01.07 0 .06-.01.11-.02.15h-.8ZM2.04 5.16c-.02-.09-.03-.18-.04-.28h.02l.76-.03h.03c.01 0 .01.03.02.05 0 .02.01.04 0 .05 0 .01-.03.01-.04.01-.24.06-.49.12-.73.19h-.02ZM4.62 1.8a2.957 2.957 0 0 0-.96.02l.1.64c.14-.03.28-.04.42-.04.1 0 .2 0 .29.02l.14-.64ZM5.38 8.33c-.38.12-.78.19-1.19.19s-.8-.06-1.17-.18l.31-.89c.27.09.56.13.87.13s.58-.04.85-.13l.34.88Z" style="fill:#f5bb2d;stroke-width:0"/><path d="M5.87 1.3c-.19-.09-.38-.17-.59-.23L5 1.99c.15.04.29.1.42.16l.45-.85Z" style="fill:#f0991b;stroke-width:0"/><path d="M4.98 7.31a2.739 2.739 0 0 1-1.6 0v-.04c.11-.29.21-.59.32-.88.06-.16.11-.32.17-.48.03 0 .1.01.14.01h.28c.05 0 .09-.02.13-.03.02 0 .02.02.03.05.17.44.35.88.52 1.33l.02.05Z" style="fill:#f5bb2d;stroke-width:0"/><path d="M5.33 2.33c-.17.32-.33.64-.5.96-.04.07-.07.14-.11.2-.04-.02-.07-.03-.12-.05-.01 0-.03-.01-.04-.02 0 0 0-.03.01-.06.12-.4.24-.79.36-1.18v-.05c.15.04.28.09.41.16l-.02.04Z" style="fill:#f0991b;stroke-width:0"/><path d="M4.43 2.63s-.02.07-.02.11c-.04.17-.08.35-.12.53 0 .02 0 .05-.02.07-.08 0-.18-.01-.27 0h-.08c-.04-.23-.08-.46-.12-.7v-.03c.12-.02.25-.04.39-.04.09 0 .17 0 .26.02v.04Z" style="fill:#f5bb2d;stroke-width:0"/><path d="M6.14 3.96c-.27.09-.53.18-.8.27a.3.3 0 0 1-.04-.1c.02-.02.05-.03.08-.04.18-.09.36-.17.54-.26.05-.02.09-.05.14-.07h.03c.03.05.06.12.09.19h-.03ZM17.64 8.15H16.6V3.66l-1.92 3.17h-.13l-1.92-3.18v4.5h-1.04v-6.3h1.12L14.61 5l1.91-3.15h1.11v6.3ZM18.88 6.06V1.85h1.04V6c0 .74.42 1.26 1.35 1.26s1.35-.52 1.35-1.26V1.85h1.04v4.21c0 1.36-1.01 2.21-2.39 2.21s-2.39-.85-2.39-2.21ZM24.55 6.72l.89-.52c.23.64.71 1.06 1.57 1.06s1.17-.37 1.17-.83c0-.56-.5-.75-1.43-1.04-.98-.3-1.94-.66-1.94-1.85s.96-1.82 2.03-1.82 1.8.55 2.2 1.39l-.87.5c-.23-.5-.62-.88-1.32-.88-.6 0-.99.31-.99.78s.35.69 1.27.98c1.04.33 2.1.66 2.1 1.91 0 1.15-.92 1.85-2.23 1.85-1.24 0-2.1-.61-2.43-1.55ZM31.15 1.85v6.3h-1.04v-6.3h1.04ZM32.14 5c0-1.83 1.38-3.27 3.3-3.27 1.15 0 2.18.59 2.71 1.5l-.9.52c-.33-.62-1.02-1.02-1.81-1.02-1.36 0-2.26.96-2.26 2.26s.9 2.26 2.26 2.26c.79 0 1.49-.4 1.81-1.02l.9.51c-.52.92-1.55 1.51-2.71 1.51-1.92 0-3.3-1.44-3.3-3.27ZM45.05 6.88h-2.68l-.44 1.27H40.8l2.29-6.3h1.24l2.28 6.3h-1.12l-.44-1.27Zm-.34-.97-1-2.85-1 2.85h2ZM46.78 5c0-1.83 1.38-3.27 3.3-3.27 1.15 0 2.18.59 2.71 1.5l-.9.52c-.33-.62-1.02-1.02-1.81-1.02-1.36 0-2.26.96-2.26 2.26s.9 2.26 2.26 2.26c.79 0 1.49-.4 1.81-1.02l.9.51c-.52.92-1.55 1.51-2.71 1.51-1.92 0-3.3-1.44-3.3-3.27ZM57.31 6.88h-2.68l-.44 1.27h-1.13l2.29-6.3h1.24l2.28 6.3h-1.12l-.44-1.27Zm-.34-.97-1-2.85-1 2.85h2ZM65.08 5c0 1.76-1.28 3.15-3.02 3.15h-2.48v-6.3h2.48c1.74 0 3.02 1.39 3.02 3.15Zm-1 0c0-1.25-.82-2.16-2.02-2.16h-1.44v4.32h1.44c1.2 0 2.02-.92 2.02-2.16ZM69.9 7.16v.99h-3.83v-6.3h3.78v.99H67.1v1.64h2.52v.98H67.1v1.7h2.79ZM76.92 8.15h-1.04V3.66l-1.92 3.17h-.13l-1.92-3.18v4.5h-1.04v-6.3h1.12L73.89 5l1.91-3.15h1.11v6.3ZM80.88 5.65v2.5h-1.04v-2.5l-2.2-3.8h1.18l1.54 2.79 1.53-2.79h1.18l-2.2 3.8Z" style="fill:#00a39e;stroke-width:0"/></svg>