<?xml version="1.0" encoding="UTF-8"?>
<svg id="a" data-name="Layer 1" xmlns="http://www.w3.org/2000/svg" xmlns:xlink="http://www.w3.org/1999/xlink" viewBox="0 0 518.56 76.77">
  <defs>
    <clipPath id="b">
      <rect x="45.16" y="520.79" width="2963.14" height="725.38" style="fill: none;"/>
    </clipPath>
  </defs>
  <rect x="0" y="0" width="518.56" height="76.77" rx="32.98" ry="32.98"/>
  <g style="clip-path: url(#b);">
    <g>
      <path d="M339.92,262.44c75.59-53.35,156.54-94.32,240.28-123.23l-103.4-348.75C351.35-167.94,230.3-106.82,118.05-25.65l221.87,288.1Z" style="fill: #f5bc2d;"/>
      <path d="M149,439.88c26.54-32.38,55.45-63.34,86.71-92.59L-1.48,71.66c-50.28,45.96-96.29,95.09-137.93,146.81l288.41,221.41Z" style="fill: #f5bc2d;"/>
    </g>
  </g>
  <g>
    <g>
      <path d="M50.19,59.83c-.11-.26-.21-.53-.32-.79-2.36.79-4.89,1.21-7.52,1.21s-5.03-.41-7.35-1.16c-.7,2-1.39,4.01-2.08,5.99-.08.23-.18.47-.22.72.16.1.35.14.52.19.56.17,1.11.32,1.7.45,2.31.52,4.96.88,7.81.78,1.85-.06,3.56-.24,5.16-.58,1.6-.34,3.09-.74,4.44-1.3-.06-.24-.16-.46-.26-.69-.64-1.61-1.25-3.22-1.89-4.82" style="fill: #f5bb2d;"/>
      <path d="M22.07,43.66c-1.18.39-2.36.78-3.54,1.17-.18.06-.48.11-.5.2-.02.07.06.25.1.38.12.4.24.77.36,1.1,1.04,2.85,2.52,5.31,4.39,7.31.16.17.31.34.47.5.17.16.33.33.52.46.53-.54,1.05-1.11,1.56-1.68.5-.56,1-1.11,1.5-1.67-2.14-2.19-3.81-4.84-4.87-7.78" style="fill: #f0991b;"/>
      <path d="M28.63,52.99c-1.23,1.49-2.48,2.97-3.71,4.45-.07.09-.19.21-.18.27,0,.08.24.24.32.31.81.7,1.67,1.32,2.61,1.87,1.08.63,2.21,1.18,3.58,1.54.19-.36.32-.76.47-1.14.57-1.43,1.14-2.86,1.71-4.28-1.73-.79-3.34-1.81-4.79-3.01" style="fill: #00a39e;"/>
      <path d="M57.47,58.32c-1-1.37-1.99-2.75-2.99-4.12-1.01.69-2.08,1.29-3.2,1.8.68,1.59,1.36,3.18,2.04,4.76.08.19.16.39.28.57.92-.21,1.67-.52,2.4-.96.51-.3,1.01-.67,1.43-1.09.08-.08.4-.32.4-.45,0-.04-.1-.17-.17-.27-.07-.1-.14-.18-.19-.25" style="fill: #f0991b;"/>
      <path d="M68.82,48.6c-.33-.14-.66-.27-.98-.41-2.01-.85-4.02-1.71-6.02-2.56-1.03,2.18-2.43,4.16-4.1,5.86.53.54,1.04,1.1,1.57,1.64.34.34.65.68.97,1.02.88.94,1.79,1.85,2.68,2.79.09.1.19.24.27.24.04,0,.18-.12.26-.18.58-.48,1.13-1,1.62-1.52,1.76-1.86,3.18-3.98,4.04-6.72-.08-.08-.21-.11-.31-.15" style="fill: #f0991b;"/>
      <path d="M68.51,34.22c-.1-1.12-.29-2.19-.53-3.2-.03-.11-.06-.36-.16-.37-.08,0-.22.07-.32.1-1.37.39-2.75.77-4.09,1.14.31,1.46.48,2.98.48,4.53,0,2.52-.43,4.93-1.23,7.17,1.22.48,2.44.96,3.66,1.43.18.07.37.16.57.19.08-.1.12-.23.17-.35.15-.38.29-.78.42-1.19.83-2.62,1.36-5.97,1.04-9.44" style="fill: #f0991b;"/>
      <path d="M64.77,20.71c-.83-1.1-1.69-2.11-2.66-3.08-1.1-1.1-2.33-2.13-3.75-2.93-.2-.11-.44-.29-.63-.33-.02,0-.04.01-.04.02-.97,1.46-1.95,2.93-2.93,4.4,2.25,1.59,4.19,3.61,5.69,5.93,1.34-.75,2.68-1.5,4.01-2.26.36-.21.73-.4,1.08-.63-.22-.4-.49-.77-.77-1.13" style="fill: #f5bb2d;"/>
      <path d="M34.42,16.38c-.46-1.37-.92-2.73-1.38-4.09-.04-.11-.11-.49-.22-.5-.08,0-.24.08-.34.12-1.51.55-2.89,1.28-4.16,2.03-3.81,2.24-6.96,5.14-9.37,8.75-.22.33-.46.66-.63,1.03,1.68.85,3.37,1.69,5.06,2.52,2.39-4.45,6.31-7.97,11.05-9.85" style="fill: #00a39e;"/>
      <path d="M53,15.06c.79-1.53,1.63-3.03,2.39-4.57-.28-.22-.63-.37-.97-.52-.87-.39-1.83-.67-2.99-.77-.19-.02-.58-.08-.75-.03-.09.03-.19.43-.24.58-.39,1.27-.78,2.55-1.18,3.83,1.29.39,2.54.89,3.73,1.48" style="fill: #f0991b;"/>
      <path d="M23.27,29.44c-.93-.37-1.85-.74-2.78-1.11-.17-.07-.41-.2-.49-.16-.08.07-.14.23-.21.37-.86,1.71-1.45,3.64-1.67,5.95-.03.36-.08.72-.04,1.09.33.04.65.02.98.03.34.01.68,0,1.01,0,.66,0,1.32,0,1.99,0,.08-2.16.5-4.24,1.21-6.18" style="fill: #f5bb2d;"/>
      <path d="M22.1,37.85c-.52.02-1.05.04-1.57.07-.65.03-1.3.05-1.93.11-.06.15-.05.32-.06.48-.06.89,0,1.8.16,2.54.06.31.12.61.26.84,1.21-.28,2.42-.6,3.62-.9-.24-1.02-.39-2.07-.47-3.14" style="fill: #f5bb2d;"/>
      <path d="M64.26,27.82c-.12-.49-.35-.87-.63-1.23-.09-.12-.31-.45-.48-.46-.03,0-.03.02-.04.02-.14.04-.29.14-.45.21-.15.07-.31.14-.45.21-.55.28-1.1.55-1.65.82.35.7.66,1.43.92,2.17.79-.26,1.58-.51,2.37-.76.16-.05.34-.08.47-.17.05-.25,0-.57-.06-.82" style="fill: #00a39e;"/>
      <path d="M39.08,18.1c1.06-.19,2.16-.29,3.28-.29.99,0,1.95.08,2.9.22.2-.87.4-1.73.6-2.6.07-.29.15-.58.18-.88-.25-.1-.52-.12-.8-.16-1.01-.15-2.18-.21-3.28-.16-1.08.05-2.03.18-2.94.43-.13.04-.38.09-.42.15-.03.06.02.29.04.43.14.97.3,1.93.45,2.85" style="fill: #f5bb2d;"/>
      <path d="M31.73,46.16c-1.25-1.36-2.25-2.97-2.9-4.74l-5.2,1.72c.96,2.67,2.48,5.08,4.41,7.08l3.69-4.07Z" style="fill: #f0991b;"/>
      <path d="M33.16,47.52c.88.73,1.86,1.36,2.9,1.87l-2.03,5.1c-1.57-.73-3.04-1.65-4.36-2.74l3.49-4.22Z" style="fill: #00a39e;"/>
      <path d="M48.48,49.46c.64-.3,1.25-.64,1.83-1.03l3.21,4.44c-.91.62-1.87,1.16-2.88,1.62l-2.16-5.03Z" style="fill: #f0991b;"/>
      <path d="M52.79,46.36c1-1.04,1.84-2.24,2.49-3.54l5.04,2.16c-.95,1.98-2.21,3.78-3.73,5.33l-3.8-3.95Z" style="fill: #f0991b;"/>
      <path d="M56.04,40.97c.48-1.44.74-2.97.74-4.57,0-.9-.08-1.78-.24-2.64l5.29-1.46c.28,1.32.42,2.69.42,4.1,0,2.3-.39,4.52-1.11,6.58l-5.1-2.01Z" style="fill: #f0991b;"/>
      <path d="M54.23,28.21c-.93-1.34-2.08-2.52-3.4-3.48l3.03-4.57c2.04,1.45,3.79,3.27,5.16,5.36l-4.8,2.68Z" style="fill: #f5bb2d;"/>
      <path d="M36.67,23.14h-.03c-2.92,1.28-5.34,3.48-6.88,6.24v.02s-4.91-2.46-4.91-2.46c2.2-4.07,5.77-7.28,10.09-9.02h0s1.73,5.21,1.73,5.21Z" style="fill: #00a39e;"/>
      <path d="M28.85,35.68c.07-1.3.32-2.55.73-3.72l-4.75-1.89c-.63,1.75-1.01,3.61-1.09,5.56l5.11.06Z" style="fill: #f5bb2d;"/>
      <path d="M29.15,39.33c-.13-.57-.22-1.16-.27-1.76l-5.1.22c.07.95.21,1.89.42,2.8l4.95-1.26Z" style="fill: #f5bb2d;"/>
      <path d="M32.34,45.49c-1.14-1.26-2.05-2.73-2.65-4.35l.08-.03c1.55-.51,3.1-1.03,4.65-1.55.18-.06.38-.16.52-.17.13-.01.13.08.2.21.26.49.59.94.92,1.34.02.02.16.14.16.21,0,.04-.11.16-.17.23-1.21,1.34-2.41,2.67-3.62,4l-.09.1Z" style="fill: #f0991b;"/>
      <path d="M36.39,48.54c-.95-.47-1.85-1.05-2.66-1.72l.13-.16c1.07-1.28,2.13-2.56,3.22-3.86.15-.18.29-.35.44-.5.1,0,.19.09.29.15.18.11.33.2.54.31.09.05.25.09.27.16.01.05-.06.19-.11.3-.57,1.45-1.16,2.91-1.73,4.34-.11.28-.22.57-.34.85l-.05.14Z" style="fill: #00a39e;"/>
      <path d="M49.78,47.7c-.53.35-1.08.66-1.66.93l-.09-.2c-.78-1.82-1.57-3.65-2.36-5.47-.04-.1-.12-.24-.12-.3.01-.13.28-.2.35-.26,0,0,.01,0,.01.01.09.06.15.15.21.23,1.16,1.61,2.32,3.22,3.49,4.83l.16.22Z" style="fill: #f0991b;"/>
      <path d="M54.44,42.46c-.6,1.19-1.37,2.28-2.28,3.24l-.2-.22c-.15-.16-.31-.32-.47-.48-.33-.33-.65-.68-.97-1.03-.8-.86-1.6-1.66-2.44-2.53-.07-.07-.15-.16-.25-.26-.09-.1-.22-.21-.22-.27,0-.07.12-.19.17-.26.07-.09.13-.17.18-.25.14-.19.27-.39.37-.53.16,0,.46.18.67.27,1.74.74,3.49,1.48,5.22,2.22l.2.09Z" style="fill: #f0991b;"/>
      <path d="M55.66,34c.14.78.21,1.58.21,2.4,0,1.48-.24,2.91-.68,4.24l-.19-.07c-1.24-.49-2.49-.97-3.74-1.46-.56-.22-1.11-.44-1.67-.66-.18-.07-.37-.12-.53-.24.12-.49.27-1.13.3-1.78,0-.19-.05-.55.02-.67.05-.08.39-.14.56-.18,1.83-.5,3.67-1.01,5.5-1.51l.22-.06Z" style="fill: #f0991b;"/>
      <path d="M53.1,28.84c-.23.13-.45.26-.68.38-1.31.74-2.74,1.54-4.1,2.31-.1.05-.23.14-.28.14-.08,0-.21-.21-.27-.29-.18-.23-.32-.41-.51-.6-.07-.07-.25-.19-.26-.29,0-.06.1-.2.15-.28,1-1.5,2-3,3.01-4.5l.16-.24c1.2.88,2.26,1.95,3.11,3.18l-.33.19Z" style="fill: #f5bb2d;"/>
      <path d="M30.54,29.82c1.44-2.57,3.69-4.63,6.41-5.81l.02.06c.08.24.16.47.24.71.42,1.24.84,2.52,1.27,3.8.05.15.19.45.17.54-.01.07-.16.12-.25.16-1.15.57-2.07,1.41-2.79,2.41-.03.05-.09.14-.16.25-.04.06-.12.21-.17.22-.1.02-.46-.2-.56-.25-1.42-.71-2.78-1.4-4.17-2.09h-.02Z" style="fill: #00a39e;"/>
      <path d="M54.73,31.83c-.16-.45-.35-.89-.56-1.31l4.93-2.41c.31.63.59,1.27.83,1.93v.04s-5.2,1.75-5.2,1.75Z" style="fill: #00a39e;"/>
      <path d="M29.6,35.68c.07-1.2.31-2.36.68-3.45l.11.05c1.23.49,2.47.99,3.7,1.49.12.05.41.14.43.2.02.08-.08.33-.1.41-.03.16-.05.3-.07.43-.05.32-.07.64-.12.89-1.49,0-2.98,0-4.47,0h-.17Z" style="fill: #f5bb2d;"/>
      <path d="M29.87,39.14c-.11-.53-.19-1.06-.24-1.61h.12c1.48-.07,2.96-.12,4.43-.18.03,0,.1-.02.15,0,.09.04.07.17.1.29.02.11.08.23.05.3-.05.07-.15.07-.22.09-1.42.36-2.84.72-4.27,1.08l-.12.03Z" style="fill: #f5bb2d;"/>
      <path d="M44.89,19.6c-.83-.12-1.68-.19-2.54-.19-1.03,0-2.05.09-3.03.27l.59,3.73c.79-.15,1.6-.22,2.43-.22.58,0,1.14.04,1.7.11l.84-3.69Z" style="fill: #f5bb2d;"/>
      <path d="M49.29,57.56c-2.18.71-4.51,1.1-6.93,1.1s-4.67-.37-6.83-1.07l1.79-5.16c1.59.5,3.28.77,5.04.77s3.37-.26,4.93-.74l2,5.09Z" style="fill: #f5bb2d;"/>
      <path d="M52.14,16.7c-1.09-.54-2.23-1-3.41-1.35l-1.63,5.34c.84.25,1.66.57,2.44.96l2.6-4.94Z" style="fill: #f0991b;"/>
      <path d="M46.96,51.63c-1.46.44-3,.68-4.61.68s-3.23-.25-4.73-.71l.06-.22c.59-1.7,1.18-3.4,1.77-5.1.32-.92.64-1.85.98-2.77.15-.03.58.06.79.07.58.04,1.12.02,1.65-.05.28-.04.53-.12.76-.15.12-.02.14.14.2.29,1.02,2.56,2.02,5.13,3.02,7.7l.1.26Z" style="fill: #f5bb2d;"/>
      <path d="M49.02,22.66c-.97,1.85-1.93,3.71-2.92,5.56-.21.39-.39.79-.63,1.16-.25-.09-.42-.2-.68-.31-.07-.03-.2-.06-.21-.12-.02-.06.05-.2.09-.32.71-2.33,1.4-4.57,2.1-6.86l.08-.27c.8.24,1.57.54,2.3.9l-.13.25Z" style="fill: #f0991b;"/>
      <path d="M43.79,24.43c-.05.21-.09.41-.14.62-.23,1.01-.47,2.03-.71,3.06-.03.14-.04.29-.12.42-.47-.03-1.06-.06-1.58-.02-.17.01-.34.04-.49.02-.22-1.31-.44-2.67-.67-4.05l-.03-.16c.74-.14,1.51-.21,2.29-.21.51,0,1.01.03,1.5.09l-.06.24Z" style="fill: #f5bb2d;"/>
      <path d="M53.7,32.18c-1.55.52-3.09,1.04-4.65,1.55-.11-.15-.15-.37-.22-.57.12-.12.29-.16.44-.23,1.03-.5,2.08-1.02,3.12-1.54.27-.14.54-.27.81-.4l.16-.08c.2.39.37.8.53,1.21l-.19.06Z" style="fill: #00a39e;"/>
    </g>
    <g>
      <path d="M120.49,56.51h-6.02v-26.11l-11.14,18.42h-.73l-11.14-18.47v26.16h-6.02V19.88h6.49l11.04,18.31,11.09-18.31h6.44v36.62Z" style="fill: #00a39e;"/>
      <path d="M127.71,44.37v-24.49h6.02v24.12c0,4.29,2.46,7.32,7.85,7.32s7.85-3.03,7.85-7.32v-24.12h6.02v24.49c0,7.9-5.86,12.82-13.86,12.82s-13.86-4.92-13.86-12.82Z" style="fill: #00a39e;"/>
      <path d="M160.68,48.19l5.18-3.03c1.31,3.72,4.13,6.17,9.1,6.17s6.8-2.15,6.8-4.81c0-3.24-2.88-4.34-8.32-6.02-5.7-1.73-11.25-3.82-11.25-10.73s5.6-10.57,11.77-10.57,10.46,3.19,12.77,8.06l-5.08,2.93c-1.31-2.93-3.61-5.13-7.69-5.13-3.51,0-5.76,1.78-5.76,4.55s2.04,4.03,7.38,5.7c6.07,1.94,12.19,3.82,12.19,11.09,0,6.7-5.34,10.78-12.97,10.78-7.22,0-12.19-3.56-14.13-9Z" style="fill: #00a39e;"/>
      <path d="M198.98,19.88v36.62h-6.02V19.88h6.02Z" style="fill: #00a39e;"/>
      <path d="M204.73,38.2c0-10.62,8.01-18.99,19.15-18.99,6.7,0,12.66,3.4,15.75,8.74l-5.23,3.03c-1.94-3.61-5.91-5.91-10.52-5.91-7.9,0-13.13,5.6-13.13,13.13s5.23,13.13,13.13,13.13c4.6,0,8.63-2.3,10.52-5.91l5.23,2.98c-3.03,5.34-9,8.79-15.75,8.79-11.14,0-19.15-8.37-19.15-18.99Z" style="fill: #00a39e;"/>
      <path d="M279.76,49.13h-15.59l-2.56,7.38h-6.54l13.29-36.62h7.22l13.24,36.62h-6.49l-2.56-7.38ZM277.77,43.48l-5.81-16.53-5.81,16.53h11.61Z" style="fill: #00a39e;"/>
      <path d="M289.81,38.2c0-10.62,8.01-18.99,19.15-18.99,6.7,0,12.66,3.4,15.75,8.74l-5.23,3.03c-1.94-3.61-5.91-5.91-10.52-5.91-7.9,0-13.13,5.6-13.13,13.13s5.23,13.13,13.13,13.13c4.6,0,8.63-2.3,10.52-5.91l5.23,2.98c-3.03,5.34-9,8.79-15.75,8.79-11.14,0-19.15-8.37-19.15-18.99Z" style="fill: #00a39e;"/>
      <path d="M350.97,49.13h-15.59l-2.56,7.38h-6.54l13.29-36.62h7.22l13.24,36.62h-6.49l-2.56-7.38ZM348.98,43.48l-5.81-16.53-5.81,16.53h11.61Z" style="fill: #00a39e;"/>
      <path d="M396.13,38.2c0,10.2-7.43,18.31-17.53,18.31h-14.39V19.88h14.39c10.1,0,17.53,8.06,17.53,18.31ZM390.32,38.2c0-7.27-4.76-12.56-11.72-12.56h-8.37v25.11h8.37c6.96,0,11.72-5.34,11.72-12.56Z" style="fill: #00a39e;"/>
      <path d="M424.12,50.75v5.75h-22.24V19.88h21.97v5.76h-15.96v9.52h14.65v5.7h-14.65v9.89h16.22Z" style="fill: #00a39e;"/>
      <path d="M464.93,56.51h-6.02v-26.11l-11.14,18.42h-.73l-11.14-18.47v26.16h-6.02V19.88h6.49l11.04,18.31,11.09-18.31h6.44v36.62Z" style="fill: #00a39e;"/>
      <path d="M487.9,41.96v14.54h-6.02v-14.54l-12.77-22.08h6.85l8.95,16.22,8.89-16.22h6.85l-12.77,22.08Z" style="fill: #00a39e;"/>
    </g>
  </g>
</svg>