<?xml version="1.0" encoding="UTF-8"?>
<svg id="a" data-name="Layer 1" xmlns="http://www.w3.org/2000/svg" xmlns:xlink="http://www.w3.org/1999/xlink" viewBox="0 0 500 76.1">
  <defs>
    <clipPath id="b">
      <rect x="35.88" y="520.45" width="2963.14" height="725.38" style="fill: none;"/>
    </clipPath>
  </defs>
  <g style="clip-path: url(#b);">
    <g>
      <path d="M330.64,262.11c75.59-53.35,156.54-94.32,240.28-123.23l-103.4-348.75C342.07-168.27,221.02-107.15,108.77-25.99l221.87,288.1Z" style="fill: #f5bc2d;"/>
      <path d="M139.72,439.55c26.54-32.38,55.45-63.34,86.71-92.59L-10.77,71.32c-50.28,45.96-96.29,95.09-137.93,146.81l288.41,221.41Z" style="fill: #f5bc2d;"/>
    </g>
  </g>
  <g>
    <g>
      <g>
        <path d="M40.91,59.5c-.11-.26-.21-.53-.32-.79-4.63,1.59-10.23,1.61-14.87.06-.76,2.25-1.59,4.47-2.3,6.71,5.97,2.04,13.67,1.92,19.64-.46-.68-1.85-1.43-3.68-2.15-5.51" style="fill: #fff;"/>
        <path d="M12.79,43.32c-7.57.58-1.1,8.13,1.81,11.13,1.05-1.08,2.04-2.23,3.06-3.34-2.14-2.19-3.81-4.84-4.87-7.78" style="fill: #fff;"/>
        <path d="M19.35,52.66c-5.16,4.95-3.88,6.16,2.61,8.43.76-1.79,1.45-3.63,2.18-5.43-1.73-.79-3.34-1.81-4.79-3.01" style="fill: #fff;"/>
        <path d="M48.19,57.98c-1-1.37-1.99-2.75-2.99-4.12-1.01.69-2.08,1.29-3.2,1.8.79,1.77,1.48,3.59,2.32,5.33,1.3-.41,4.74-1.52,3.87-3.01" style="fill: #fff;"/>
        <path d="M59.54,48.26c-2.35-.97-4.67-1.98-7.01-2.97-1.03,2.18-2.43,4.16-4.1,5.86,5.82,7.83,7.94,5.43,11.41-2.74-.08-.08-.21-.11-.31-.15" style="fill: #fff;"/>
        <path d="M59.23,33.88c.09-4.57-1.82-3.31-5.11-2.35.84,3.8.55,8.11-.75,11.7,1.42.53,2.8,1.15,4.23,1.62,1.38-3.28,1.93-6.8,1.62-10.98" style="fill: #fff;"/>
        <path d="M55.49,20.38c-3.24-4.2-7.32-9-10.01-1.91,2.25,1.59,4.19,3.61,5.69,5.93,1.69-.96,3.42-1.88,5.09-2.89-.22-.4-.49-.77-.77-1.13" style="fill: #fff;"/>
        <path d="M25.14,16.04c-1.42-10.26-13.26,2.77-16.11,7.33,1.68.85,3.37,1.69,5.06,2.52,2.39-4.45,6.31-7.97,11.05-9.85" style="fill: #fff;"/>
        <path d="M43.72,14.72c.79-1.53,1.63-3.03,2.39-4.57-4.06-2.54-5.35-1.13-6.12,3.08,1.29.39,2.54.89,3.73,1.48" style="fill: #fff;"/>
        <path d="M13.99,29.11c-4.44-3.16-4.92,2.33-5.19,6.14,1.32.07,2.66.01,3.98.04.08-2.16.5-4.24,1.21-6.18" style="fill: #fff;"/>
        <path d="M12.82,37.52c-1.17.06-2.35.08-3.51.18-.19,1.3-.09,2.73.35,3.87,1.21-.28,2.42-.6,3.62-.9-.24-1.02-.39-2.07-.47-3.14" style="fill: #fff;"/>
        <path d="M54.98,27.48c-.49-2.49-2.19-1.2-3.7-.42.35.7.66,1.43.92,2.17.94-.33,1.92-.57,2.84-.93.05-.25,0-.57-.06-.82" style="fill: #fff;"/>
        <path d="M29.8,17.76c1.99-.36,4.17-.38,6.17-.06.25-1.16.56-2.31.78-3.47-3.3-.51-9.04-1.35-6.95,3.54" style="fill: #fff;"/>
        <path d="M22.45,45.82c-1.25-1.36-2.25-2.97-2.9-4.74l-5.2,1.72c.96,2.67,2.48,5.08,4.41,7.08l3.69-4.07Z" style="fill: #fff;"/>
        <path d="M23.88,47.18c.88.73,1.86,1.36,2.9,1.87l-2.03,5.1c-1.57-.73-3.04-1.65-4.36-2.74l3.49-4.22Z" style="fill: #fff;"/>
        <path d="M39.19,49.13c.64-.3,1.25-.64,1.83-1.03l3.21,4.44c-.91.62-1.87,1.16-2.88,1.62l-2.16-5.03Z" style="fill: #fff;"/>
        <path d="M43.5,46.03c1-1.04,1.84-2.24,2.49-3.54l5.04,2.16c-.95,1.98-2.21,3.78-3.73,5.33l-3.8-3.95Z" style="fill: #fff;"/>
        <path d="M46.76,40.64c.76-2.23.95-4.85.5-7.21l5.29-1.46c.75,3.46.49,7.39-.69,10.67l-5.1-2.01Z" style="fill: #fff;"/>
        <path d="M44.94,27.88c-.93-1.34-2.08-2.52-3.4-3.48l3.03-4.57c2.04,1.45,3.79,3.27,5.16,5.36l-4.8,2.68Z" style="fill: #fff;"/>
        <path d="M27.39,22.81c-2.94,1.26-5.39,3.48-6.93,6.27l-4.9-2.46c2.2-4.07,5.77-7.29,10.1-9.02l1.73,5.21Z" style="fill: #fff;"/>
        <path d="M19.57,35.34c.07-1.3.32-2.55.73-3.72l-4.75-1.89c-.63,1.75-1.01,3.61-1.09,5.56l5.11.06Z" style="fill: #fff;"/>
        <path d="M19.87,38.99c-.13-.57-.22-1.16-.27-1.76l-5.1.22c.07.95.21,1.89.42,2.8l4.95-1.26Z" style="fill: #fff;"/>
        <path d="M23.06,45.15c-1.14-1.26-2.05-2.73-2.65-4.35,7.06-3.11,8.07-.58,2.65,4.35Z" style="fill: #fff;"/>
        <path d="M27.11,48.21c-.95-.47-1.85-1.05-2.66-1.72,1.26-1.49,2.49-3.03,3.79-4.52,2.37.92-.9,4.31-1.13,6.24Z" style="fill: #fff;"/>
        <path d="M40.5,47.37c-.53.35-1.08.66-1.66.93-.46-1.98-2.79-4.63-2.2-6.22,1.35,1.7,2.56,3.54,3.86,5.28Z" style="fill: #fff;"/>
        <path d="M45.16,42.13c-.6,1.19-1.37,2.28-2.28,3.24-1.02-1.85-5.53-3.82-3.83-5.81,2.03.8,4.07,1.73,6.1,2.58Z" style="fill: #fff;"/>
        <path d="M46.38,33.67c.4,2.17.23,4.58-.47,6.64-2.04-.82-4.12-1.55-6.13-2.43-.28-3.73,3.86-3.1,6.59-4.21Z" style="fill: #fff;"/>
        <path d="M43.82,28.51c-6.72,4.51-7.22,2.28-2.78-3.36,1.2.88,2.26,1.95,3.11,3.18l-.33.19Z" style="fill: #fff;"/>
        <path d="M21.26,29.48c1.44-2.57,3.69-4.63,6.41-5.81.55,1.68,1.17,3.42,1.7,5.12-1.17.64-2.3,1.45-3.03,2.57-1.24.97-3.49-1.5-5.08-1.88Z" style="fill: #fff;"/>
        <path d="M45.45,31.49c-.16-.45-.35-.89-.56-1.31l4.93-2.41c.31.64.6,1.29.84,1.97l-5.21,1.75Z" style="fill: #fff;"/>
        <path d="M20.32,35.35c.07-1.2.31-2.36.68-3.45,1.75,1,5,.86,3.96,3.45-1.54,0-3.09,0-4.64,0Z" style="fill: #fff;"/>
        <path d="M20.59,38.81c-.11-.53-.19-1.06-.24-1.61,1.5.18,3.75-.64,4.8.11-.63,1.06-3.2.88-4.56,1.5Z" style="fill: #fff;"/>
        <path d="M35.61,19.26c-1.81-.28-3.77-.25-5.57.08l.59,3.73c1.33-.25,2.78-.29,4.14-.12l.84-3.69Z" style="fill: #fff;"/>
        <path d="M40,57.22c-4.29,1.45-9.46,1.46-13.76.03l1.79-5.16c3.12,1.01,6.84,1.02,9.97.03l2,5.09Z" style="fill: #fff;"/>
        <path d="M42.86,16.36c-1.09-.54-2.23-1-3.41-1.35l-1.63,5.34c.84.25,1.66.57,2.44.96l2.6-4.94Z" style="fill: #fff;"/>
        <path d="M37.68,51.29c-2.93.91-6.41.9-9.34-.04.91-2.71,1.85-5.4,2.81-8.09,4.98-1.13,4.6,4.64,6.52,8.13Z" style="fill: #fff;"/>
        <path d="M39.74,22.33c-1.18,2.23-2.32,4.51-3.55,6.73-1.99-1.34,1.26-5.52,1.37-7.88.8.24,1.57.54,2.3.9l-.13.25Z" style="fill: #fff;"/>
        <path d="M34.51,24.1c-.33,1.35-.59,2.75-.96,4.09-.62-.07-1.42-.02-2.07,0-.23-1.36-.46-2.78-.69-4.21,1.22-.23,2.54-.28,3.79-.12l-.06.24Z" style="fill: #fff;"/>
        <path d="M44.42,31.84c-1.55.52-3.09,1.04-4.65,1.55-.11-.15-.15-.37-.22-.57,1.47-.78,3.03-1.49,4.53-2.25.2.39.37.8.53,1.21l-.19.06Z" style="fill: #fff;"/>
      </g>
      <g>
        <path d="M111.21,56.17h-6.02v-26.11l-11.14,18.42h-.73l-11.14-18.47v26.16h-6.02V19.55h6.49l11.04,18.31,11.09-18.31h6.44v36.62Z" style="fill: #fff;"/>
        <path d="M118.43,44.03v-24.49h6.02c1.9,6.92-5.75,32.54,7.85,31.44,13.58,1.15,5.97-24.59,7.85-31.44h6.02v24.49c.76,16.93-28.53,16.91-27.73,0Z" style="fill: #fff;"/>
        <path d="M151.4,47.85l5.18-3.03c.71,6.85,15.87,8.8,15.91,1.36-1-7.98-20.89-5.09-19.57-16.74.14-13.58,20.62-13.42,24.54-2.51l-5.08,2.93c-1.17-5.64-13.2-7.57-13.45-.58,1.07,7.89,20.99,5.31,19.57,16.8.52,14.04-24.3,13.76-27.1,1.78Z" style="fill: #fff;"/>
        <path d="M189.69,19.55v36.62h-6.02V19.55h6.02Z" style="fill: #fff;"/>
        <path d="M195.45,37.86c-1.17-18.4,25.99-26.17,34.9-10.25l-5.23,3.03c-5.93-10.93-24.73-5.44-23.65,7.22-1.1,12.65,17.78,18.16,23.65,7.22l5.23,2.98c-8.8,15.97-36.09,8.22-34.9-10.2Z" style="fill: #fff;"/>
        <path d="M270.48,48.8h-15.59l-2.56,7.38h-6.54l13.29-36.62h7.22l13.24,36.62h-6.49l-2.56-7.38ZM268.49,43.14l-5.81-16.53-5.81,16.53h11.61Z" style="fill: #fff;"/>
        <path d="M280.53,37.86c-1.17-18.4,25.99-26.17,34.9-10.25l-5.23,3.03c-5.93-10.93-24.73-5.44-23.65,7.22-1.1,12.65,17.78,18.16,23.65,7.22l5.23,2.98c-8.8,15.97-36.09,8.22-34.9-10.2Z" style="fill: #fff;"/>
        <path d="M341.69,48.8h-15.59l-2.56,7.38h-6.54l13.29-36.62h7.22l13.24,36.62h-6.49l-2.56-7.38ZM339.7,43.14l-5.81-16.53-5.81,16.53h11.61Z" style="fill: #fff;"/>
        <path d="M386.84,37.86c.49,18.06-18.42,19.56-31.91,18.31V19.55c13.51-1.23,32.4.21,31.91,18.31ZM381.04,37.86c.38-11.88-11.02-13.48-20.09-12.56v25.11c9.07.94,20.47-.73,20.09-12.56Z" style="fill: #fff;"/>
        <path d="M414.84,50.42v5.75h-22.24V19.55h21.97v5.76h-15.96v9.52h14.65v5.7h-14.65v9.89h16.22Z" style="fill: #fff;"/>
        <path d="M455.65,56.17h-6.02v-26.11l-11.14,18.42h-.73l-11.14-18.47v26.16h-6.02V19.55h6.49l11.04,18.31,11.09-18.31h6.44v36.62Z" style="fill: #fff;"/>
        <path d="M498.93,15.19c-4.85-7.19-20.46-6.34-23.32,2.5-2.86-8.94-12.86-6.51-19.97-6.85-8.61-1.42-14.2,2.31-17.51,10.18-3.73-9.41-11.07-12.07-20.55-9.61-7.33.01-29.03-4.29-32.88,4.51-7.2-5.74-36.32-10.41-38.37,2.43-2.58-11.55-24.34-10.33-25.53,1.78-10.51-14.17-35.31-12.58-44.28,2.12-2.03-10.02-7.87-12.53-17.46-11.4-9.46.37-5.95,7.67-13.63,13.56-13.68,1.79-18.79-27.19-47.85-8.48-3.05-6.8-15.61-6.88-20.4-2.12-6.83-4.72-17.88-4.84-24.59-.06-4.79-4.64-17.15-4.59-20.3,2.03-2.74-6.15-12.02-5.68-17.48-4.11-9.46-2.96-17.39-.13-21.12,9.37-3.32-7.92-8.91-11.59-17.55-10.18-10.16-.18-8.85,12.27-8.71,19.11-.32-2.24-1.27-4.34-2.93-5.88,1.07-3.04.04-6.47-2.06-8.94-2.17-2.93-5.22-5.99-8.2-7.76-3.12-7.66-16.27-10.87-20.71-2.11-1.25-.17-2.52.07-3.71.3C19.21-3.44-3.52,15.68,1.43,27.61c-3.99,14.25.3,32.22,13.65,40.04,4.83,11.72,31.28,10.88,36.2-.2,1.08-.66,2.03-1.38,2.56-1.92,6.63-.24,11.18-7.23,13.59-12.59-3.47,14.18,21.88,17.09,23.42,3.9,1.79.5,3.85.5,5.64,0,.54,9.83,16.8,10.77,21.8,4.35,8.12,6.44,23.44,5.56,30.39-1.95,6.73,6.92,20.72,8.32,29.06,3.29,5.09,3.94,16.87,3.95,19.83-2.72,11.9,9.85,32.89,6.5,40.26-7.34-5.93,14.13,20.75,17.75,23.23,5.03h3.2c1.71,9.08,16,9.71,21.68,4.44,7.34,4.33,17.76,4.84,25.51.93,6.2,3.87,19.14,3.51,20.82-5.37h3.2c1.84,9.46,12.48,7.05,19.43,7.37,9.05-.06,22.6,1.32,29.78-5.08,3.78,8.82,25.73,4.45,33.01,4.55,6.47,1.55,17.07,1.14,17.58-7.51,1.79.5,3.85.5,5.64,0,.61,10.83,21.02,11.31,23.18,1.28,1.23,6.75,8.92,7.21,14.49,6.76,10.88.21,8.59-13.91,8.71-20.92,2.08-5.83,16.68-22.15,11.6-28.78Z" style="fill: #fff;"/>
        <path d="M478.62,41.63v14.54h-6.02v-14.54l-12.77-22.08h6.85l8.95,16.22,8.89-16.22h6.85l-12.77,22.08Z" style="fill: #fff;"/>
      </g>
    </g>
    <g>
      <g>
        <path d="M40.91,59.5c-.11-.26-.21-.53-.32-.79-2.36.79-4.89,1.21-7.52,1.21s-5.03-.41-7.35-1.16c-.7,2-1.39,4.01-2.08,5.99-.08.23-.18.47-.22.72.16.1.35.14.52.19.56.17,1.11.32,1.7.45,2.31.52,4.96.88,7.81.78,1.85-.06,3.56-.24,5.16-.58,1.6-.34,3.09-.74,4.44-1.3-.06-.24-.16-.46-.26-.69-.64-1.61-1.25-3.22-1.89-4.82" style="fill: #f5bb2d;"/>
        <path d="M12.79,43.32c-1.18.39-2.36.78-3.54,1.17-.18.06-.48.11-.5.2-.02.07.06.25.1.38.12.4.24.77.36,1.1,1.04,2.85,2.52,5.31,4.39,7.31.16.17.31.34.47.5.17.16.33.33.52.46.53-.54,1.05-1.11,1.56-1.68.5-.56,1-1.11,1.5-1.67-2.14-2.19-3.81-4.84-4.87-7.78" style="fill: #f0991b;"/>
        <path d="M19.35,52.66c-1.23,1.49-2.48,2.97-3.71,4.45-.07.09-.19.21-.18.27,0,.08.24.24.32.31.81.7,1.67,1.32,2.61,1.87,1.08.63,2.21,1.18,3.58,1.54.19-.36.32-.76.47-1.14.57-1.43,1.14-2.86,1.71-4.28-1.73-.79-3.34-1.81-4.79-3.01" style="fill: #00a39e;"/>
        <path d="M48.19,57.98c-1-1.37-1.99-2.75-2.99-4.12-1.01.69-2.08,1.29-3.2,1.8.68,1.59,1.36,3.18,2.04,4.76.08.19.16.39.28.57.92-.21,1.67-.52,2.4-.96.51-.3,1.01-.67,1.43-1.09.08-.08.4-.32.4-.45,0-.04-.1-.17-.17-.27-.07-.1-.14-.18-.19-.25" style="fill: #f0991b;"/>
        <path d="M59.54,48.26c-.33-.14-.66-.27-.98-.41-2.01-.85-4.02-1.71-6.02-2.56-1.03,2.18-2.43,4.16-4.1,5.86.53.54,1.04,1.1,1.57,1.64.34.34.65.68.97,1.02.88.94,1.79,1.85,2.68,2.79.09.1.19.24.27.24.04,0,.18-.12.26-.18.58-.48,1.13-1,1.62-1.52,1.76-1.86,3.18-3.98,4.04-6.72-.08-.08-.21-.11-.31-.15" style="fill: #f0991b;"/>
        <path d="M59.23,33.88c-.1-1.12-.29-2.19-.53-3.2-.03-.11-.06-.36-.16-.37-.08,0-.22.07-.32.1-1.37.39-2.75.77-4.09,1.14.31,1.46.48,2.98.48,4.53,0,2.52-.43,4.93-1.23,7.17,1.22.48,2.44.96,3.66,1.43.18.07.37.16.57.19.08-.1.12-.23.17-.35.15-.38.29-.78.42-1.19.83-2.62,1.36-5.97,1.04-9.44" style="fill: #f0991b;"/>
        <path d="M55.49,20.38c-.83-1.1-1.69-2.11-2.66-3.08-1.1-1.1-2.33-2.13-3.75-2.93-.2-.11-.44-.29-.63-.33-.02,0-.04.01-.04.02-.97,1.46-1.95,2.93-2.93,4.4,2.25,1.59,4.19,3.61,5.69,5.93,1.34-.75,2.68-1.5,4.01-2.26.36-.21.73-.4,1.08-.63-.22-.4-.49-.77-.77-1.13" style="fill: #f5bb2d;"/>
        <path d="M25.14,16.04c-.46-1.37-.92-2.73-1.38-4.09-.04-.11-.11-.49-.22-.5-.08,0-.24.08-.34.12-1.51.55-2.89,1.28-4.16,2.03-3.81,2.24-6.96,5.14-9.37,8.75-.22.33-.46.66-.63,1.03,1.68.85,3.37,1.69,5.06,2.52,2.39-4.45,6.31-7.97,11.05-9.85" style="fill: #00a39e;"/>
        <path d="M43.72,14.72c.79-1.53,1.63-3.03,2.39-4.57-.28-.22-.63-.37-.97-.52-.87-.39-1.83-.67-2.99-.77-.19-.02-.58-.08-.75-.03-.09.03-.19.43-.24.58-.39,1.27-.78,2.55-1.18,3.83,1.29.39,2.54.89,3.73,1.48" style="fill: #f0991b;"/>
        <path d="M13.99,29.11c-.93-.37-1.85-.74-2.78-1.11-.17-.07-.41-.2-.49-.16-.08.07-.14.23-.21.37-.86,1.71-1.45,3.64-1.67,5.95-.03.36-.08.72-.04,1.09.33.04.65.02.98.03.34.01.68,0,1.01,0,.66,0,1.32,0,1.99,0,.08-2.16.5-4.24,1.21-6.18" style="fill: #f5bb2d;"/>
        <path d="M12.82,37.52c-.52.02-1.05.04-1.57.07-.65.03-1.3.05-1.93.11-.06.15-.05.32-.06.48-.06.89,0,1.8.16,2.54.06.31.12.61.26.84,1.21-.28,2.42-.6,3.62-.9-.24-1.02-.39-2.07-.47-3.14" style="fill: #f5bb2d;"/>
        <path d="M54.98,27.48c-.12-.49-.35-.87-.63-1.23-.09-.12-.31-.45-.48-.46-.03,0-.03.02-.04.02-.14.04-.29.14-.45.21-.15.07-.31.14-.45.21-.55.28-1.1.55-1.65.82.35.7.66,1.43.92,2.17.79-.26,1.58-.51,2.37-.76.16-.05.34-.08.47-.17.05-.25,0-.57-.06-.82" style="fill: #00a39e;"/>
        <path d="M29.8,17.76c1.06-.19,2.16-.29,3.28-.29.99,0,1.95.08,2.9.22.2-.87.4-1.73.6-2.6.07-.29.15-.58.18-.88-.25-.1-.52-.12-.8-.16-1.01-.15-2.18-.21-3.28-.16-1.08.05-2.03.18-2.94.43-.13.04-.38.09-.42.15-.03.06.02.29.04.43.14.97.3,1.93.45,2.85" style="fill: #f5bb2d;"/>
        <path d="M22.45,45.82c-1.25-1.36-2.25-2.97-2.9-4.74l-5.2,1.72c.96,2.67,2.48,5.08,4.41,7.08l3.69-4.07Z" style="fill: #f0991b;"/>
        <path d="M23.88,47.18c.88.73,1.86,1.36,2.9,1.87l-2.03,5.1c-1.57-.73-3.04-1.65-4.36-2.74l3.49-4.22Z" style="fill: #00a39e;"/>
        <path d="M39.19,49.13c.64-.3,1.25-.64,1.83-1.03l3.21,4.44c-.91.62-1.87,1.16-2.88,1.62l-2.16-5.03Z" style="fill: #f0991b;"/>
        <path d="M43.5,46.03c1-1.04,1.84-2.24,2.49-3.54l5.04,2.16c-.95,1.98-2.21,3.78-3.73,5.33l-3.8-3.95Z" style="fill: #f0991b;"/>
        <path d="M46.76,40.64c.48-1.44.74-2.97.74-4.57,0-.9-.08-1.78-.24-2.64l5.29-1.46c.28,1.32.42,2.69.42,4.1,0,2.3-.39,4.52-1.11,6.58l-5.1-2.01Z" style="fill: #f0991b;"/>
        <path d="M44.94,27.88c-.93-1.34-2.08-2.52-3.4-3.48l3.03-4.57c2.04,1.45,3.79,3.27,5.16,5.36l-4.8,2.68Z" style="fill: #f5bb2d;"/>
        <path d="M27.39,22.81h-.03c-2.92,1.28-5.34,3.48-6.88,6.24v.02s-4.91-2.46-4.91-2.46c2.2-4.07,5.77-7.28,10.09-9.02h0s1.73,5.21,1.73,5.21Z" style="fill: #00a39e;"/>
        <path d="M19.57,35.34c.07-1.3.32-2.55.73-3.72l-4.75-1.89c-.63,1.75-1.01,3.61-1.09,5.56l5.11.06Z" style="fill: #f5bb2d;"/>
        <path d="M19.87,38.99c-.13-.57-.22-1.16-.27-1.76l-5.1.22c.07.95.21,1.89.42,2.8l4.95-1.26Z" style="fill: #f5bb2d;"/>
        <path d="M23.06,45.15c-1.14-1.26-2.05-2.73-2.65-4.35l.08-.03c1.55-.51,3.1-1.03,4.65-1.55.18-.06.38-.16.52-.17.13-.01.13.08.2.21.26.49.59.94.92,1.34.02.02.16.14.16.21,0,.04-.11.16-.17.23-1.21,1.34-2.41,2.67-3.62,4l-.09.1Z" style="fill: #f0991b;"/>
        <path d="M27.11,48.21c-.95-.47-1.85-1.05-2.66-1.72l.13-.16c1.07-1.28,2.13-2.56,3.22-3.86.15-.18.29-.35.44-.5.1,0,.19.09.29.15.18.11.33.2.54.31.09.05.25.09.27.16.01.05-.06.19-.11.3-.57,1.45-1.16,2.91-1.73,4.34-.11.28-.22.57-.34.85l-.05.14Z" style="fill: #00a39e;"/>
        <path d="M40.5,47.37c-.53.35-1.08.66-1.66.93l-.09-.2c-.78-1.82-1.57-3.65-2.36-5.47-.04-.1-.12-.24-.12-.3.01-.13.28-.2.35-.26,0,0,.01,0,.01.01.09.06.15.15.21.23,1.16,1.61,2.32,3.22,3.49,4.83l.16.22Z" style="fill: #f0991b;"/>
        <path d="M45.16,42.13c-.6,1.19-1.37,2.28-2.28,3.24l-.2-.22c-.15-.16-.31-.32-.47-.48-.33-.33-.65-.68-.97-1.03-.8-.86-1.6-1.66-2.44-2.53-.07-.07-.15-.16-.25-.26-.09-.1-.22-.21-.22-.27,0-.07.12-.19.17-.26.07-.09.13-.17.18-.25.14-.19.27-.39.37-.53.16,0,.46.18.67.27,1.74.74,3.49,1.48,5.22,2.22l.2.09Z" style="fill: #f0991b;"/>
        <path d="M46.38,33.67c.14.78.21,1.58.21,2.4,0,1.48-.24,2.91-.68,4.24l-.19-.07c-1.24-.49-2.49-.97-3.74-1.46-.56-.22-1.11-.44-1.67-.66-.18-.07-.37-.12-.53-.24.12-.49.27-1.13.3-1.78,0-.19-.05-.55.02-.67.05-.08.39-.14.56-.18,1.83-.5,3.67-1.01,5.5-1.51l.22-.06Z" style="fill: #f0991b;"/>
        <path d="M43.82,28.51c-.23.13-.45.26-.68.38-1.31.74-2.74,1.54-4.1,2.31-.1.05-.23.14-.28.14-.08,0-.21-.21-.27-.29-.18-.23-.32-.41-.51-.6-.07-.07-.25-.19-.26-.29,0-.06.1-.2.15-.28,1-1.5,2-3,3.01-4.5l.16-.24c1.2.88,2.26,1.95,3.11,3.18l-.33.19Z" style="fill: #f5bb2d;"/>
        <path d="M21.26,29.48c1.44-2.57,3.69-4.63,6.41-5.81l.02.06c.08.24.16.47.24.71.42,1.24.84,2.52,1.27,3.8.05.15.19.45.17.54-.01.07-.16.12-.25.16-1.15.57-2.07,1.41-2.79,2.41-.03.05-.09.14-.16.25-.04.06-.12.21-.17.22-.1.02-.46-.2-.56-.25-1.42-.71-2.78-1.4-4.17-2.09h-.02Z" style="fill: #00a39e;"/>
        <path d="M45.45,31.49c-.16-.45-.35-.89-.56-1.31l4.93-2.41c.31.63.59,1.27.83,1.93v.04s-5.2,1.75-5.2,1.75Z" style="fill: #00a39e;"/>
        <path d="M20.32,35.35c.07-1.2.31-2.36.68-3.45l.11.05c1.23.49,2.47.99,3.7,1.49.12.05.41.14.43.2.02.08-.08.33-.1.41-.03.16-.05.3-.07.43-.05.32-.07.64-.12.89-1.49,0-2.98,0-4.47,0h-.17Z" style="fill: #f5bb2d;"/>
        <path d="M20.59,38.81c-.11-.53-.19-1.06-.24-1.61h.12c1.48-.07,2.96-.12,4.43-.18.03,0,.1-.02.15,0,.09.04.07.17.1.29.02.11.08.23.05.3-.05.07-.15.07-.22.09-1.42.36-2.84.72-4.27,1.08l-.12.03Z" style="fill: #f5bb2d;"/>
        <path d="M35.61,19.26c-.83-.12-1.68-.19-2.54-.19-1.03,0-2.05.09-3.03.27l.59,3.73c.79-.15,1.6-.22,2.43-.22.58,0,1.14.04,1.7.11l.84-3.69Z" style="fill: #f5bb2d;"/>
        <path d="M40,57.22c-2.18.71-4.51,1.1-6.93,1.1s-4.67-.37-6.83-1.07l1.79-5.16c1.59.5,3.28.77,5.04.77s3.37-.26,4.93-.74l2,5.09Z" style="fill: #f5bb2d;"/>
        <path d="M42.86,16.36c-1.09-.54-2.23-1-3.41-1.35l-1.63,5.34c.84.25,1.66.57,2.44.96l2.6-4.94Z" style="fill: #f0991b;"/>
        <path d="M37.68,51.29c-1.46.44-3,.68-4.61.68s-3.23-.25-4.73-.71l.06-.22c.59-1.7,1.18-3.4,1.77-5.1.32-.92.64-1.85.98-2.77.15-.03.58.06.79.07.58.04,1.12.02,1.65-.05.28-.04.53-.12.76-.15.12-.02.14.14.2.29,1.02,2.56,2.02,5.13,3.02,7.7l.1.26Z" style="fill: #f5bb2d;"/>
        <path d="M39.74,22.33c-.97,1.85-1.93,3.71-2.92,5.56-.21.39-.39.79-.63,1.16-.25-.09-.42-.2-.68-.31-.07-.03-.2-.06-.21-.12-.02-.06.05-.2.09-.32.71-2.33,1.4-4.57,2.1-6.86l.08-.27c.8.24,1.57.54,2.3.9l-.13.25Z" style="fill: #f0991b;"/>
        <path d="M34.51,24.1c-.05.21-.09.41-.14.62-.23,1.01-.47,2.03-.71,3.06-.03.14-.04.29-.12.42-.47-.03-1.06-.06-1.58-.02-.17.01-.34.04-.49.02-.22-1.31-.44-2.67-.67-4.05l-.03-.16c.74-.14,1.51-.21,2.29-.21.51,0,1.01.03,1.5.09l-.06.24Z" style="fill: #f5bb2d;"/>
        <path d="M44.42,31.84c-1.55.52-3.09,1.04-4.65,1.55-.11-.15-.15-.37-.22-.57.12-.12.29-.16.44-.23,1.03-.5,2.08-1.02,3.12-1.54.27-.14.54-.27.81-.4l.16-.08c.2.39.37.8.53,1.21l-.19.06Z" style="fill: #00a39e;"/>
      </g>
      <g>
        <path d="M111.21,56.17h-6.02v-26.11l-11.14,18.42h-.73l-11.14-18.47v26.16h-6.02V19.55h6.49l11.04,18.31,11.09-18.31h6.44v36.62Z" style="fill: #00a39e;"/>
        <path d="M118.43,44.03v-24.49h6.02v24.12c0,4.29,2.46,7.32,7.85,7.32s7.85-3.03,7.85-7.32v-24.12h6.02v24.49c0,7.9-5.86,12.82-13.86,12.82s-13.86-4.92-13.86-12.82Z" style="fill: #00a39e;"/>
        <path d="M151.4,47.85l5.18-3.03c1.31,3.72,4.13,6.17,9.1,6.17s6.8-2.15,6.8-4.81c0-3.24-2.88-4.34-8.32-6.02-5.7-1.73-11.25-3.82-11.25-10.73s5.6-10.57,11.77-10.57,10.46,3.19,12.77,8.06l-5.08,2.93c-1.31-2.93-3.61-5.13-7.69-5.13-3.51,0-5.76,1.78-5.76,4.55s2.04,4.03,7.38,5.7c6.07,1.94,12.19,3.82,12.19,11.09,0,6.7-5.34,10.78-12.97,10.78-7.22,0-12.19-3.56-14.13-9Z" style="fill: #00a39e;"/>
        <path d="M189.69,19.55v36.62h-6.02V19.55h6.02Z" style="fill: #00a39e;"/>
        <path d="M195.45,37.86c0-10.62,8.01-18.99,19.15-18.99,6.7,0,12.66,3.4,15.75,8.74l-5.23,3.03c-1.94-3.61-5.91-5.91-10.52-5.91-7.9,0-13.13,5.6-13.13,13.13s5.23,13.13,13.13,13.13c4.6,0,8.63-2.3,10.52-5.91l5.23,2.98c-3.03,5.34-9,8.79-15.75,8.79-11.14,0-19.15-8.37-19.15-18.99Z" style="fill: #00a39e;"/>
        <path d="M270.48,48.8h-15.59l-2.56,7.38h-6.54l13.29-36.62h7.22l13.24,36.62h-6.49l-2.56-7.38ZM268.49,43.14l-5.81-16.53-5.81,16.53h11.61Z" style="fill: #00a39e;"/>
        <path d="M280.53,37.86c0-10.62,8.01-18.99,19.15-18.99,6.7,0,12.66,3.4,15.75,8.74l-5.23,3.03c-1.94-3.61-5.91-5.91-10.52-5.91-7.9,0-13.13,5.6-13.13,13.13s5.23,13.13,13.13,13.13c4.6,0,8.63-2.3,10.52-5.91l5.23,2.98c-3.03,5.34-9,8.79-15.75,8.79-11.14,0-19.15-8.37-19.15-18.99Z" style="fill: #00a39e;"/>
        <path d="M341.69,48.8h-15.59l-2.56,7.38h-6.54l13.29-36.62h7.22l13.24,36.62h-6.49l-2.56-7.38ZM339.7,43.14l-5.81-16.53-5.81,16.53h11.61Z" style="fill: #00a39e;"/>
        <path d="M386.84,37.86c0,10.2-7.43,18.31-17.53,18.31h-14.39V19.55h14.39c10.1,0,17.53,8.06,17.53,18.31ZM381.04,37.86c0-7.27-4.76-12.56-11.72-12.56h-8.37v25.11h8.37c6.96,0,11.72-5.34,11.72-12.56Z" style="fill: #00a39e;"/>
        <path d="M414.84,50.42v5.75h-22.24V19.55h21.97v5.76h-15.96v9.52h14.65v5.7h-14.65v9.89h16.22Z" style="fill: #00a39e;"/>
        <path d="M455.65,56.17h-6.02v-26.11l-11.14,18.42h-.73l-11.14-18.47v26.16h-6.02V19.55h6.49l11.04,18.31,11.09-18.31h6.44v36.62Z" style="fill: #00a39e;"/>
        <path d="M478.62,41.63v14.54h-6.02v-14.54l-12.77-22.08h6.85l8.95,16.22,8.89-16.22h6.85l-12.77,22.08Z" style="fill: #00a39e;"/>
      </g>
    </g>
  </g>
</svg>